<mxfile host="Electron" agent="Mozilla/5.0 (Windows NT 10.0; Win64; x64) AppleWebKit/537.36 (KHTML, like Gecko) draw.io/24.7.17 Chrome/128.0.6613.36 Electron/32.0.1 Safari/537.36" version="24.7.17">
  <diagram name="Page-1" id="-pZgw3kJHn1jAqIQpNoF">
    <mxGraphModel dx="1021" dy="506" grid="1" gridSize="10" guides="1" tooltips="1" connect="1" arrows="1" fold="1" page="1" pageScale="1" pageWidth="827" pageHeight="1169" math="0" shadow="0">
      <root>
        <mxCell id="0" />
        <mxCell id="1" parent="0" />
        <mxCell id="hOo59rd0F6GZLUOiB9Mv-1" value="" style="shape=folder;fontStyle=1;spacingTop=10;tabWidth=40;tabHeight=14;tabPosition=left;html=1;whiteSpace=wrap;fillColor=#A9C4EB;" vertex="1" parent="1">
          <mxGeometry x="50" y="210" width="540" height="360" as="geometry" />
        </mxCell>
        <mxCell id="hOo59rd0F6GZLUOiB9Mv-2" value="«component»&lt;br&gt;&lt;b&gt;DAO&lt;/b&gt;" style="html=1;dropTarget=0;whiteSpace=wrap;" vertex="1" parent="1">
          <mxGeometry x="60" y="270" width="160" height="60" as="geometry" />
        </mxCell>
        <mxCell id="hOo59rd0F6GZLUOiB9Mv-3" value="" style="shape=module;jettyWidth=8;jettyHeight=4;" vertex="1" parent="hOo59rd0F6GZLUOiB9Mv-2">
          <mxGeometry x="1" width="20" height="20" relative="1" as="geometry">
            <mxPoint x="-27" y="7" as="offset" />
          </mxGeometry>
        </mxCell>
        <mxCell id="hOo59rd0F6GZLUOiB9Mv-4" value="«component»&lt;br&gt;&lt;b&gt;Furnitures&lt;/b&gt;" style="html=1;dropTarget=0;whiteSpace=wrap;" vertex="1" parent="1">
          <mxGeometry x="60" y="370" width="160" height="60" as="geometry" />
        </mxCell>
        <mxCell id="hOo59rd0F6GZLUOiB9Mv-5" value="" style="shape=module;jettyWidth=8;jettyHeight=4;" vertex="1" parent="hOo59rd0F6GZLUOiB9Mv-4">
          <mxGeometry x="1" width="20" height="20" relative="1" as="geometry">
            <mxPoint x="-27" y="7" as="offset" />
          </mxGeometry>
        </mxCell>
        <mxCell id="hOo59rd0F6GZLUOiB9Mv-6" value="«component»&lt;br&gt;&lt;b&gt;RankChief&lt;/b&gt;" style="html=1;dropTarget=0;whiteSpace=wrap;" vertex="1" parent="1">
          <mxGeometry x="60" y="470" width="160" height="70" as="geometry" />
        </mxCell>
        <mxCell id="hOo59rd0F6GZLUOiB9Mv-7" value="" style="shape=module;jettyWidth=8;jettyHeight=4;" vertex="1" parent="hOo59rd0F6GZLUOiB9Mv-6">
          <mxGeometry x="1" width="20" height="20" relative="1" as="geometry">
            <mxPoint x="-27" y="7" as="offset" />
          </mxGeometry>
        </mxCell>
        <mxCell id="hOo59rd0F6GZLUOiB9Mv-8" value="«component»&lt;br&gt;&lt;b&gt;RoomMaster&lt;/b&gt;" style="html=1;dropTarget=0;whiteSpace=wrap;" vertex="1" parent="1">
          <mxGeometry x="260" y="270" width="140" height="60" as="geometry" />
        </mxCell>
        <mxCell id="hOo59rd0F6GZLUOiB9Mv-9" value="" style="shape=module;jettyWidth=8;jettyHeight=4;" vertex="1" parent="hOo59rd0F6GZLUOiB9Mv-8">
          <mxGeometry x="1" width="20" height="20" relative="1" as="geometry">
            <mxPoint x="-27" y="7" as="offset" />
          </mxGeometry>
        </mxCell>
        <mxCell id="hOo59rd0F6GZLUOiB9Mv-10" value="«component»&lt;br&gt;&lt;b&gt;Room&lt;/b&gt;" style="html=1;dropTarget=0;whiteSpace=wrap;" vertex="1" parent="1">
          <mxGeometry x="260" y="370" width="140" height="60" as="geometry" />
        </mxCell>
        <mxCell id="hOo59rd0F6GZLUOiB9Mv-11" value="" style="shape=module;jettyWidth=8;jettyHeight=4;" vertex="1" parent="hOo59rd0F6GZLUOiB9Mv-10">
          <mxGeometry x="1" width="20" height="20" relative="1" as="geometry">
            <mxPoint x="-27" y="7" as="offset" />
          </mxGeometry>
        </mxCell>
        <mxCell id="hOo59rd0F6GZLUOiB9Mv-12" value="«component»&lt;br&gt;&lt;b&gt;GUI&lt;/b&gt;" style="html=1;dropTarget=0;whiteSpace=wrap;" vertex="1" parent="1">
          <mxGeometry x="260" y="470" width="140" height="70" as="geometry" />
        </mxCell>
        <mxCell id="hOo59rd0F6GZLUOiB9Mv-13" value="" style="shape=module;jettyWidth=8;jettyHeight=4;" vertex="1" parent="hOo59rd0F6GZLUOiB9Mv-12">
          <mxGeometry x="1" width="20" height="20" relative="1" as="geometry">
            <mxPoint x="-27" y="7" as="offset" />
          </mxGeometry>
        </mxCell>
        <mxCell id="hOo59rd0F6GZLUOiB9Mv-14" value="«component»&lt;br&gt;&lt;b&gt;ClientGenerator&lt;/b&gt;" style="html=1;dropTarget=0;whiteSpace=wrap;" vertex="1" parent="1">
          <mxGeometry x="430" y="270" width="140" height="60" as="geometry" />
        </mxCell>
        <mxCell id="hOo59rd0F6GZLUOiB9Mv-15" value="" style="shape=module;jettyWidth=8;jettyHeight=4;" vertex="1" parent="hOo59rd0F6GZLUOiB9Mv-14">
          <mxGeometry x="1" width="20" height="20" relative="1" as="geometry">
            <mxPoint x="-27" y="7" as="offset" />
          </mxGeometry>
        </mxCell>
        <mxCell id="hOo59rd0F6GZLUOiB9Mv-16" value="«component»&lt;br&gt;&lt;b&gt;ClientPool&lt;/b&gt;" style="html=1;dropTarget=0;whiteSpace=wrap;" vertex="1" parent="1">
          <mxGeometry x="430" y="370" width="150" height="70" as="geometry" />
        </mxCell>
        <mxCell id="hOo59rd0F6GZLUOiB9Mv-17" value="" style="shape=module;jettyWidth=8;jettyHeight=4;" vertex="1" parent="hOo59rd0F6GZLUOiB9Mv-16">
          <mxGeometry x="1" width="20" height="20" relative="1" as="geometry">
            <mxPoint x="-27" y="7" as="offset" />
          </mxGeometry>
        </mxCell>
        <mxCell id="hOo59rd0F6GZLUOiB9Mv-18" value="«component»&lt;br&gt;&lt;b&gt;ClientService&lt;/b&gt;" style="html=1;dropTarget=0;whiteSpace=wrap;" vertex="1" parent="1">
          <mxGeometry x="430" y="470" width="150" height="70" as="geometry" />
        </mxCell>
        <mxCell id="hOo59rd0F6GZLUOiB9Mv-19" value="" style="shape=module;jettyWidth=8;jettyHeight=4;" vertex="1" parent="hOo59rd0F6GZLUOiB9Mv-18">
          <mxGeometry x="1" width="20" height="20" relative="1" as="geometry">
            <mxPoint x="-27" y="7" as="offset" />
          </mxGeometry>
        </mxCell>
        <mxCell id="hOo59rd0F6GZLUOiB9Mv-20" value="Salle" style="text;align=center;fontStyle=1;verticalAlign=middle;spacingLeft=3;spacingRight=3;strokeColor=none;rotatable=0;points=[[0,0.5],[1,0.5]];portConstraint=eastwest;html=1;" vertex="1" parent="1">
          <mxGeometry x="280" y="220" width="80" height="26" as="geometry" />
        </mxCell>
        <mxCell id="hOo59rd0F6GZLUOiB9Mv-21" value="" style="html=1;verticalAlign=bottom;endArrow=open;dashed=1;endSize=8;curved=0;rounded=0;" edge="1" parent="1" source="hOo59rd0F6GZLUOiB9Mv-4">
          <mxGeometry relative="1" as="geometry">
            <mxPoint x="220" y="330" as="sourcePoint" />
            <mxPoint x="140" y="330" as="targetPoint" />
          </mxGeometry>
        </mxCell>
        <mxCell id="hOo59rd0F6GZLUOiB9Mv-22" value="" style="html=1;verticalAlign=bottom;endArrow=open;dashed=1;endSize=8;curved=0;rounded=0;" edge="1" parent="1">
          <mxGeometry relative="1" as="geometry">
            <mxPoint x="139.5" y="470" as="sourcePoint" />
            <mxPoint x="139.5" y="430" as="targetPoint" />
          </mxGeometry>
        </mxCell>
        <mxCell id="hOo59rd0F6GZLUOiB9Mv-23" value="" style="html=1;verticalAlign=bottom;endArrow=open;dashed=1;endSize=8;curved=0;rounded=0;entryX=0;entryY=1;entryDx=0;entryDy=0;" edge="1" parent="1" target="hOo59rd0F6GZLUOiB9Mv-10">
          <mxGeometry relative="1" as="geometry">
            <mxPoint x="219" y="470" as="sourcePoint" />
            <mxPoint x="219" y="430" as="targetPoint" />
          </mxGeometry>
        </mxCell>
        <mxCell id="hOo59rd0F6GZLUOiB9Mv-24" value="" style="html=1;verticalAlign=bottom;endArrow=open;dashed=1;endSize=8;curved=0;rounded=0;entryX=1;entryY=0.5;entryDx=0;entryDy=0;exitX=0;exitY=0.5;exitDx=0;exitDy=0;" edge="1" parent="1" source="hOo59rd0F6GZLUOiB9Mv-10" target="hOo59rd0F6GZLUOiB9Mv-4">
          <mxGeometry relative="1" as="geometry">
            <mxPoint x="259" y="410" as="sourcePoint" />
            <mxPoint x="259" y="370" as="targetPoint" />
          </mxGeometry>
        </mxCell>
        <mxCell id="hOo59rd0F6GZLUOiB9Mv-25" value="" style="html=1;verticalAlign=bottom;endArrow=open;dashed=1;endSize=8;curved=0;rounded=0;entryX=0;entryY=0;entryDx=0;entryDy=0;exitX=1;exitY=1;exitDx=0;exitDy=0;" edge="1" parent="1" source="hOo59rd0F6GZLUOiB9Mv-8" target="hOo59rd0F6GZLUOiB9Mv-16">
          <mxGeometry relative="1" as="geometry">
            <mxPoint x="410" y="340" as="sourcePoint" />
            <mxPoint x="410" y="300" as="targetPoint" />
          </mxGeometry>
        </mxCell>
        <mxCell id="hOo59rd0F6GZLUOiB9Mv-26" value="" style="html=1;verticalAlign=bottom;endArrow=open;dashed=1;endSize=8;curved=0;rounded=0;entryX=0.5;entryY=0;entryDx=0;entryDy=0;exitX=0.5;exitY=1;exitDx=0;exitDy=0;" edge="1" parent="1" source="hOo59rd0F6GZLUOiB9Mv-14" target="hOo59rd0F6GZLUOiB9Mv-16">
          <mxGeometry relative="1" as="geometry">
            <mxPoint x="499.5" y="360" as="sourcePoint" />
            <mxPoint x="499.5" y="320" as="targetPoint" />
          </mxGeometry>
        </mxCell>
        <mxCell id="hOo59rd0F6GZLUOiB9Mv-27" value="" style="html=1;verticalAlign=bottom;endArrow=open;dashed=1;endSize=8;curved=0;rounded=0;entryX=1;entryY=1;entryDx=0;entryDy=0;" edge="1" parent="1" target="hOo59rd0F6GZLUOiB9Mv-10">
          <mxGeometry relative="1" as="geometry">
            <mxPoint x="430" y="470" as="sourcePoint" />
            <mxPoint x="430" y="430" as="targetPoint" />
          </mxGeometry>
        </mxCell>
        <mxCell id="hOo59rd0F6GZLUOiB9Mv-28" value="" style="html=1;verticalAlign=bottom;endArrow=open;dashed=1;endSize=8;curved=0;rounded=0;" edge="1" parent="1">
          <mxGeometry relative="1" as="geometry">
            <mxPoint x="329.5" y="470" as="sourcePoint" />
            <mxPoint x="329.5" y="430" as="targetPoint" />
          </mxGeometry>
        </mxCell>
        <mxCell id="hOo59rd0F6GZLUOiB9Mv-29" value="" style="html=1;verticalAlign=bottom;endArrow=open;dashed=1;endSize=8;curved=0;rounded=0;entryX=0.5;entryY=0;entryDx=0;entryDy=0;" edge="1" parent="1" target="hOo59rd0F6GZLUOiB9Mv-12">
          <mxGeometry relative="1" as="geometry">
            <mxPoint x="329.5" y="460" as="sourcePoint" />
            <mxPoint x="329.5" y="420" as="targetPoint" />
          </mxGeometry>
        </mxCell>
        <mxCell id="hOo59rd0F6GZLUOiB9Mv-31" value="" style="shape=folder;fontStyle=1;spacingTop=10;tabWidth=40;tabHeight=14;tabPosition=left;html=1;whiteSpace=wrap;fillColor=#A9C4EB;" vertex="1" parent="1">
          <mxGeometry x="670" y="215" width="710" height="350" as="geometry" />
        </mxCell>
        <mxCell id="hOo59rd0F6GZLUOiB9Mv-32" value="Cuisine" style="text;align=center;fontStyle=1;verticalAlign=middle;spacingLeft=3;spacingRight=3;strokeColor=none;rotatable=0;points=[[0,0.5],[1,0.5]];portConstraint=eastwest;html=1;" vertex="1" parent="1">
          <mxGeometry x="970" y="230" width="80" height="30" as="geometry" />
        </mxCell>
        <mxCell id="hOo59rd0F6GZLUOiB9Mv-33" value="&amp;laquo;Annotation&amp;raquo;&lt;br/&gt;&lt;b&gt;Component&lt;/b&gt;" style="html=1;dropTarget=0;whiteSpace=wrap;" vertex="1" parent="1">
          <mxGeometry x="685" y="380" width="135" height="60" as="geometry" />
        </mxCell>
        <mxCell id="hOo59rd0F6GZLUOiB9Mv-34" value="" style="shape=module;jettyWidth=8;jettyHeight=4;" vertex="1" parent="hOo59rd0F6GZLUOiB9Mv-33">
          <mxGeometry x="1" width="20" height="20" relative="1" as="geometry">
            <mxPoint x="-27" y="7" as="offset" />
          </mxGeometry>
        </mxCell>
        <mxCell id="hOo59rd0F6GZLUOiB9Mv-35" value="&amp;laquo;Annotation&amp;raquo;&lt;br/&gt;&lt;b&gt;Component&lt;/b&gt;" style="html=1;dropTarget=0;whiteSpace=wrap;" vertex="1" parent="1">
          <mxGeometry x="685" y="480" width="140" height="60" as="geometry" />
        </mxCell>
        <mxCell id="hOo59rd0F6GZLUOiB9Mv-36" value="" style="shape=module;jettyWidth=8;jettyHeight=4;" vertex="1" parent="hOo59rd0F6GZLUOiB9Mv-35">
          <mxGeometry x="1" width="20" height="20" relative="1" as="geometry">
            <mxPoint x="-27" y="7" as="offset" />
          </mxGeometry>
        </mxCell>
        <mxCell id="hOo59rd0F6GZLUOiB9Mv-37" value="&amp;laquo;Annotation&amp;raquo;&lt;br/&gt;&lt;b&gt;Component&lt;/b&gt;" style="html=1;dropTarget=0;whiteSpace=wrap;" vertex="1" parent="1">
          <mxGeometry x="850" y="380" width="130" height="60" as="geometry" />
        </mxCell>
        <mxCell id="hOo59rd0F6GZLUOiB9Mv-38" value="" style="shape=module;jettyWidth=8;jettyHeight=4;" vertex="1" parent="hOo59rd0F6GZLUOiB9Mv-37">
          <mxGeometry x="1" width="20" height="20" relative="1" as="geometry">
            <mxPoint x="-27" y="7" as="offset" />
          </mxGeometry>
        </mxCell>
        <mxCell id="hOo59rd0F6GZLUOiB9Mv-39" value="&amp;laquo;Annotation&amp;raquo;&lt;br/&gt;&lt;b&gt;Component&lt;/b&gt;" style="html=1;dropTarget=0;whiteSpace=wrap;" vertex="1" parent="1">
          <mxGeometry x="1020" y="380" width="120" height="60" as="geometry" />
        </mxCell>
        <mxCell id="hOo59rd0F6GZLUOiB9Mv-40" value="" style="shape=module;jettyWidth=8;jettyHeight=4;" vertex="1" parent="hOo59rd0F6GZLUOiB9Mv-39">
          <mxGeometry x="1" width="20" height="20" relative="1" as="geometry">
            <mxPoint x="-27" y="7" as="offset" />
          </mxGeometry>
        </mxCell>
        <mxCell id="hOo59rd0F6GZLUOiB9Mv-41" value="&amp;laquo;Annotation&amp;raquo;&lt;br/&gt;&lt;b&gt;Component&lt;/b&gt;" style="html=1;dropTarget=0;whiteSpace=wrap;" vertex="1" parent="1">
          <mxGeometry x="1020" y="475" width="120" height="60" as="geometry" />
        </mxCell>
        <mxCell id="hOo59rd0F6GZLUOiB9Mv-42" value="" style="shape=module;jettyWidth=8;jettyHeight=4;" vertex="1" parent="hOo59rd0F6GZLUOiB9Mv-41">
          <mxGeometry x="1" width="20" height="20" relative="1" as="geometry">
            <mxPoint x="-27" y="7" as="offset" />
          </mxGeometry>
        </mxCell>
        <mxCell id="hOo59rd0F6GZLUOiB9Mv-43" value="&amp;laquo;Annotation&amp;raquo;&lt;br/&gt;&lt;b&gt;Component&lt;/b&gt;" style="html=1;dropTarget=0;whiteSpace=wrap;" vertex="1" parent="1">
          <mxGeometry x="1190" y="260" width="169" height="64" as="geometry" />
        </mxCell>
        <mxCell id="hOo59rd0F6GZLUOiB9Mv-44" value="" style="shape=module;jettyWidth=8;jettyHeight=4;" vertex="1" parent="hOo59rd0F6GZLUOiB9Mv-43">
          <mxGeometry x="1" width="20" height="20" relative="1" as="geometry">
            <mxPoint x="-27" y="7" as="offset" />
          </mxGeometry>
        </mxCell>
        <mxCell id="hOo59rd0F6GZLUOiB9Mv-45" value="&amp;laquo;Annotation&amp;raquo;&lt;br/&gt;&lt;b&gt;Component&lt;/b&gt;" style="html=1;dropTarget=0;whiteSpace=wrap;" vertex="1" parent="1">
          <mxGeometry x="1189" y="420" width="170" height="60" as="geometry" />
        </mxCell>
        <mxCell id="hOo59rd0F6GZLUOiB9Mv-46" value="" style="shape=module;jettyWidth=8;jettyHeight=4;" vertex="1" parent="hOo59rd0F6GZLUOiB9Mv-45">
          <mxGeometry x="1" width="20" height="20" relative="1" as="geometry">
            <mxPoint x="-27" y="7" as="offset" />
          </mxGeometry>
        </mxCell>
        <mxCell id="hOo59rd0F6GZLUOiB9Mv-47" value="" style="html=1;verticalAlign=bottom;endArrow=open;dashed=1;endSize=8;curved=0;rounded=0;entryX=0.5;entryY=0;entryDx=0;entryDy=0;exitX=0.5;exitY=1;exitDx=0;exitDy=0;" edge="1" parent="1">
          <mxGeometry relative="1" as="geometry">
            <mxPoint x="750" y="440" as="sourcePoint" />
            <mxPoint x="755" y="480" as="targetPoint" />
          </mxGeometry>
        </mxCell>
        <mxCell id="hOo59rd0F6GZLUOiB9Mv-49" value="" style="html=1;verticalAlign=bottom;endArrow=open;dashed=1;endSize=8;curved=0;rounded=0;exitX=0;exitY=0.5;exitDx=0;exitDy=0;entryX=0.996;entryY=0.4;entryDx=0;entryDy=0;entryPerimeter=0;" edge="1" parent="1" source="hOo59rd0F6GZLUOiB9Mv-41" target="hOo59rd0F6GZLUOiB9Mv-35">
          <mxGeometry relative="1" as="geometry">
            <mxPoint x="840" y="460" as="sourcePoint" />
            <mxPoint x="830" y="505" as="targetPoint" />
          </mxGeometry>
        </mxCell>
        <mxCell id="hOo59rd0F6GZLUOiB9Mv-50" value="" style="html=1;verticalAlign=bottom;endArrow=open;dashed=1;endSize=8;curved=0;rounded=0;entryX=0;entryY=0.5;entryDx=0;entryDy=0;exitX=1;exitY=0.5;exitDx=0;exitDy=0;" edge="1" parent="1" source="hOo59rd0F6GZLUOiB9Mv-33" target="hOo59rd0F6GZLUOiB9Mv-37">
          <mxGeometry relative="1" as="geometry">
            <mxPoint x="820" y="400" as="sourcePoint" />
            <mxPoint x="825" y="440" as="targetPoint" />
          </mxGeometry>
        </mxCell>
        <mxCell id="hOo59rd0F6GZLUOiB9Mv-51" value="" style="html=1;verticalAlign=bottom;endArrow=open;dashed=1;endSize=8;curved=0;rounded=0;entryX=0;entryY=0;entryDx=0;entryDy=0;exitX=0.5;exitY=1;exitDx=0;exitDy=0;" edge="1" parent="1" target="hOo59rd0F6GZLUOiB9Mv-41">
          <mxGeometry relative="1" as="geometry">
            <mxPoint x="980" y="435" as="sourcePoint" />
            <mxPoint x="985" y="475" as="targetPoint" />
          </mxGeometry>
        </mxCell>
        <mxCell id="hOo59rd0F6GZLUOiB9Mv-52" value="" style="html=1;verticalAlign=bottom;endArrow=open;dashed=1;endSize=8;curved=0;rounded=0;entryX=0;entryY=0.5;entryDx=0;entryDy=0;exitX=1;exitY=0.5;exitDx=0;exitDy=0;" edge="1" parent="1" source="hOo59rd0F6GZLUOiB9Mv-37" target="hOo59rd0F6GZLUOiB9Mv-39">
          <mxGeometry relative="1" as="geometry">
            <mxPoint x="980" y="400" as="sourcePoint" />
            <mxPoint x="985" y="440" as="targetPoint" />
          </mxGeometry>
        </mxCell>
        <mxCell id="hOo59rd0F6GZLUOiB9Mv-53" value="" style="html=1;verticalAlign=bottom;endArrow=open;dashed=1;endSize=8;curved=0;rounded=0;entryX=0.041;entryY=1;entryDx=0;entryDy=0;exitX=0.5;exitY=1;exitDx=0;exitDy=0;entryPerimeter=0;" edge="1" parent="1" target="hOo59rd0F6GZLUOiB9Mv-43">
          <mxGeometry relative="1" as="geometry">
            <mxPoint x="1140" y="380" as="sourcePoint" />
            <mxPoint x="1145" y="420" as="targetPoint" />
          </mxGeometry>
        </mxCell>
        <mxCell id="hOo59rd0F6GZLUOiB9Mv-54" value="" style="html=1;verticalAlign=bottom;endArrow=open;dashed=1;endSize=8;curved=0;rounded=0;entryX=0.5;entryY=0;entryDx=0;entryDy=0;exitX=0.5;exitY=1;exitDx=0;exitDy=0;" edge="1" parent="1" source="hOo59rd0F6GZLUOiB9Mv-43" target="hOo59rd0F6GZLUOiB9Mv-45">
          <mxGeometry relative="1" as="geometry">
            <mxPoint x="1271.5" y="320" as="sourcePoint" />
            <mxPoint x="1276.5" y="360" as="targetPoint" />
          </mxGeometry>
        </mxCell>
        <mxCell id="hOo59rd0F6GZLUOiB9Mv-55" value="" style="html=1;verticalAlign=bottom;endArrow=open;dashed=1;endSize=8;curved=0;rounded=0;entryX=0.107;entryY=1.031;entryDx=0;entryDy=0;exitX=1;exitY=0;exitDx=0;exitDy=0;entryPerimeter=0;" edge="1" parent="1" source="hOo59rd0F6GZLUOiB9Mv-41" target="hOo59rd0F6GZLUOiB9Mv-43">
          <mxGeometry relative="1" as="geometry">
            <mxPoint x="1140" y="470" as="sourcePoint" />
            <mxPoint x="1145" y="510" as="targetPoint" />
          </mxGeometry>
        </mxCell>
        <mxCell id="hOo59rd0F6GZLUOiB9Mv-56" value="" style="html=1;verticalAlign=bottom;endArrow=open;dashed=1;endSize=8;curved=0;rounded=0;entryX=0;entryY=0.5;entryDx=0;entryDy=0;" edge="1" parent="1" target="hOo59rd0F6GZLUOiB9Mv-43">
          <mxGeometry relative="1" as="geometry">
            <mxPoint x="770" y="300" as="sourcePoint" />
            <mxPoint x="975" y="324" as="targetPoint" />
          </mxGeometry>
        </mxCell>
        <mxCell id="hOo59rd0F6GZLUOiB9Mv-57" value="" style="endArrow=none;dashed=1;html=1;rounded=0;exitX=0.637;exitY=0.008;exitDx=0;exitDy=0;exitPerimeter=0;" edge="1" parent="1" source="hOo59rd0F6GZLUOiB9Mv-33">
          <mxGeometry width="50" height="50" relative="1" as="geometry">
            <mxPoint x="720" y="350" as="sourcePoint" />
            <mxPoint x="770" y="300" as="targetPoint" />
          </mxGeometry>
        </mxCell>
        <mxCell id="hOo59rd0F6GZLUOiB9Mv-60" value="" style="endArrow=none;html=1;rounded=0;entryX=0;entryY=0.5;entryDx=0;entryDy=0;" edge="1" parent="1" target="hOo59rd0F6GZLUOiB9Mv-35">
          <mxGeometry width="50" height="50" relative="1" as="geometry">
            <mxPoint x="580" y="510" as="sourcePoint" />
            <mxPoint x="630" y="460" as="targetPoint" />
          </mxGeometry>
        </mxCell>
      </root>
    </mxGraphModel>
  </diagram>
</mxfile>
